<?xml version="1.0" encoding="utf-8"?>
<svg xmlns="http://www.w3.org/2000/svg" clip-rule="evenodd" data-bbox="-0.003 3.477 7332.666 900.692" data-type="ugc" fill-rule="evenodd" stroke-linejoin="round" stroke-miterlimit="2" viewBox="0 0 7334 905">
    <g>
        <path d="M3347.894 143.396v752.43h-59.279V10.108l51.904-.05c4.43 7.463 186.896 324.563 276.809 480.05a232497.703 232497.703 0 00110.104 190.247c3.213 5.537 6.804 10.854 11.93 18.983 4.57-6.812 8.228-11.642 11.245-16.846 159.7-275.813 379.375-660.63 390.421-674.03h49.142V896.26h-58.542V142.204c-1.929-.691-261.842 437.446-378.158 638.342h-32.117c-117.342-201.829-372.017-637.604-373.459-637.15z" fill="#231f20" fill-rule="nonzero"/>
        <path d="M6873.339 848.95c14.417-.708 32-.587 49.333-2.57 218.5-24.963 371.084-213.275 346.875-432.284-34.958-316.075-363-433.25-601.625-304.158-181.958 98.429-240.125 313.942-170.542 494.846 58.5 152.017 199.292 242.538 375.959 244.167zm-2.209 55.034c-191.666-4.854-342.166-82.804-422.083-261.867-116.334-260.62 18.292-580.667 344.458-631.584 139.084-21.712 269.792 5.534 379.96 97.746 119.958 100.455 170.54 232.121 157.083 387.292-13.667 157.609-91.042 275.871-229.042 352.963-71.084 39.72-149 55.388-230.376 55.45z" fill="#231f20" fill-rule="nonzero"/>
        <path d="M1133.693 10.838h60.079v407.958h599.13V11.283h61.104v884.789h-60.871V474.25H1194.8v421.847h-61.108V10.837z" fill="#231f20" fill-rule="nonzero"/>
        <path d="M775.438 127.225l-40.896 32.633C636.651 68.767 515.35 44.021 382.638 67.017c-96.921 16.791-177.4 64.037-238.538 142.037C22.7 363.946 36.57 595.725 175.342 735.838c137.946 139.28 409.346 159.409 563.446 8.07l35.733 34.747c-76.02 97.362-254.366 152.342-429.73 112.337C148.992 846.33 11.297 681.976.809 487.146-11.983 249.31 128.25 91.604 289.046 33.625c182.025-65.638 395.63-15.304 486.392 93.6z" fill="#231f20" fill-rule="nonzero"/>
        <path d="M6046.88 10.87v885.552h-58.334V10.87h58.334z" fill="#231f20" fill-rule="nonzero"/>
        <path d="M2875.402 11.28v51.758H2302.89V11.279h572.513z" fill="#231f20" fill-rule="nonzero"/>
        <path d="M2875.065 844.95v51.4h-571.596v-51.4h571.596z" fill="#231f20" fill-rule="nonzero"/>
        <path d="M2875.402 419.909v51.758H2302.89v-51.758h572.513z" fill="#231f20" fill-rule="nonzero"/>
        <path d="M4697.004 145.27V897.7h-59.292V11.984l51.917-.05c4.416 7.463 186.875 324.563 276.792 480.05 36.666 63.43 73.375 126.855 110.125 190.247 3.208 5.541 6.791 10.854 11.916 18.983 4.584-6.812 8.209-11.642 11.25-16.846 159.709-275.817 379.376-660.63 390.417-674.025h49.125V898.13h-58.541V144.08c-1.917-.692-261.834 437.445-378.167 638.337h-32.084c-117.375-201.825-372.042-637.604-373.458-637.146z" fill="#231f20" fill-rule="nonzero"/>
    </g>
</svg>